<?xml version="1.0" standalone="no"?>
<!DOCTYPE svg PUBLIC "-//W3C//DTD SVG 20010904//EN"
 "http://www.w3.org/TR/2001/REC-SVG-20010904/DTD/svg10.dtd">
<svg version="1.0" xmlns="http://www.w3.org/2000/svg"
 width="1042.000000pt" height="1042.000000pt" viewBox="0 0 1042.000000 1042.000000"
 preserveAspectRatio="xMidYMid meet">

<g transform="translate(0.000000,1042.000000) scale(0.100000,-0.100000)"
fill="#000000" stroke="none">
<path d="M4860 10410 c-1020 -74 -1966 -425 -2777 -1032 -378 -283 -770 -677
-1054 -1058 -879 -1181 -1215 -2675 -928 -4130 202 -1024 725 -1982 1483
-2718 1290 -1251 3128 -1747 4876 -1316 915 225 1758 702 2430 1374 579 579
1000 1261 1260 2040 385 1153 351 2425 -96 3554 -479 1209 -1382 2186 -2549
2761 -561 276 -1147 444 -1780 510 -179 19 -688 27 -865 15z m445 -1502 c24
-83 53 -245 71 -399 12 -108 18 -308 24 -804 8 -639 17 -846 55 -1285 17 -194
62 -621 71 -661 l5 -25 327 94 c1024 293 1830 454 2600 518 l83 7 -6 -114
c-10 -184 -12 -195 -43 -208 -281 -112 -970 -318 -1792 -536 -759 -201 -1074
-287 -1082 -294 -24 -22 289 -1529 463 -2224 133 -534 191 -827 200 -1024 l3
-51 -153 -127 c-118 -98 -156 -124 -163 -114 -31 45 -164 335 -206 449 -107
286 -164 494 -332 1200 -177 745 -280 1224 -346 1620 -10 58 -19 106 -20 108
-3 5 -623 -192 -964 -307 -692 -232 -1222 -431 -1621 -606 -206 -91 -351 -141
-434 -150 l-61 -7 23 168 c13 93 26 189 29 212 5 41 9 45 52 64 26 12 140 70
253 130 294 155 529 262 884 403 503 200 1029 388 1505 540 135 42 248 80 251
84 3 3 -7 105 -22 226 -31 244 -62 559 -81 825 -17 235 -17 1400 0 1635 14
191 34 372 58 521 l16 100 157 41 c86 22 161 41 168 42 7 0 19 -22 28 -51z
m1670 -304 c359 -94 612 -442 655 -898 34 -366 -80 -658 -335 -862 -231 -186
-472 -230 -726 -135 -344 130 -550 541 -509 1018 26 300 125 537 295 708 101
101 191 154 305 180 78 18 227 13 315 -11z m-3414 -1350 c25 -26 199 -164 227
-180 2 -1 -11 -44 -28 -96 -48 -137 -143 -321 -253 -489 l-17 -26 94 -71 c138
-104 283 -231 350 -307 l58 -66 -114 -115 -114 -116 -92 31 c-138 46 -260 113
-432 239 -15 11 -24 0 -90 -114 -93 -162 -175 -285 -237 -353 -40 -44 -52 -53
-71 -47 -34 11 -352 225 -352 237 0 6 14 52 30 101 38 114 128 290 231 454 44
70 78 131 77 135 -2 5 -46 59 -98 120 -159 185 -270 356 -300 458 -9 31 -12
28 176 193 21 18 22 18 80 -25 75 -55 154 -133 278 -275 54 -62 102 -112 106
-110 4 2 41 46 81 98 118 153 327 360 364 360 6 0 27 -16 46 -36z m4318 -2571
l84 -54 -6 -102 c-6 -108 -32 -219 -121 -520 -26 -88 -46 -160 -44 -161 2 -1
52 -42 113 -92 136 -110 267 -239 328 -323 l47 -63 -73 -107 c-123 -179 -162
-230 -171 -231 -39 -1 -286 147 -389 232 -26 23 -49 39 -51 37 -1 -2 -22 -40
-45 -84 -50 -93 -138 -226 -181 -273 -36 -38 -16 -45 -232 80 -115 66 -138 83
-138 103 0 68 84 321 168 506 l30 67 -35 33 c-47 46 -199 218 -268 304 -67 83
-215 303 -215 319 0 6 51 63 114 125 l115 114 75 -56 c86 -65 189 -152 329
-280 54 -50 99 -88 100 -86 1 2 10 20 18 39 9 19 74 158 144 307 l129 273 45
-27 c25 -14 84 -50 130 -80z m-3786 -609 c264 -67 491 -302 605 -626 58 -164
80 -340 62 -493 -45 -379 -259 -674 -565 -782 -74 -26 -91 -28 -225 -28 -138
1 -150 2 -243 34 -286 98 -481 331 -570 679 -19 76 -22 112 -21 292 0 190 2
212 27 305 113 418 411 660 787 638 47 -2 111 -11 143 -19z"/>
<path d="M6739 8097 c-20 -12 -48 -36 -63 -53 -58 -70 -131 -266 -159 -427
-10 -63 -9 -74 12 -135 65 -191 178 -301 309 -302 174 -1 284 175 285 455 0
170 -41 300 -125 391 -80 87 -187 116 -259 71z"/>
<path d="M3802 3603 c-24 -8 -69 -39 -101 -68 -73 -68 -117 -159 -139 -288
-20 -118 -6 -240 40 -360 26 -68 42 -92 97 -148 81 -81 148 -111 256 -111 91
-1 159 27 219 92 81 86 116 187 116 331 0 217 -134 486 -272 549 -52 24 -154
25 -216 3z"/>
</g>
</svg>
